<svg width="64" height="64" viewBox="0 0 64 64" fill="none" xmlns="http://www.w3.org/2000/svg">
<path d="M32.0031 60.4159L44.6818 57.2141C51.9186 51.2049 56.5281 42.1409 56.5281 31.9993C56.5281 16.3563 45.5643 3.27414 30.9016 0.0177612C13.7371 0.596636 0 14.6936 0 31.9991C0 40.8881 3.625 48.9299 9.4765 54.7286L32.0031 60.4159Z" fill="#CBE2FF"/>
<path d="M55.8643 32C55.8643 42.4894 50.8166 51.7989 43.0186 57.6349L54.5225 54.7298C60.3744 48.931 64 40.8893 64 32C64 14.3269 49.6731 0 32 0C30.622 0 29.2643 0.08725 27.9321 0.25625C43.6845 2.25475 55.8643 15.705 55.8643 32Z" fill="#BED8FB"/>
<path d="M39.9526 12.119C39.9526 10.4846 38.6277 9.15974 36.9934 9.15974H26.7956C23.0342 9.15974 19.985 12.209 19.985 15.9704V23.532H44.0111V16.0776C44.0111 14.4432 42.6862 13.1184 41.0519 13.1184H40.9521C40.4001 13.1184 39.9526 12.671 39.9526 12.119Z" fill="#365E7D"/>
<path d="M41.0519 13.1184H40.9521C40.4001 13.1184 39.9526 12.6709 39.9526 12.1189C39.9526 10.4845 38.6277 9.15964 36.9934 9.15964H35.8752V23.5319H44.011V16.0775C44.0111 14.4434 42.6861 13.1184 41.0519 13.1184Z" fill="#2B4D66"/>
<path d="M53.1306 46.5444C52.3482 45.7716 51.3805 45.174 50.2818 44.8262L41.5455 42.0602L32.002 41.7249L22.4545 42.0602L13.7181 44.8262C10.7626 45.762 8.75397 48.5048 8.75397 51.6049V53.9916C14.3526 59.9076 22.1853 63.6876 30.9018 63.9816C40.6678 61.8125 48.793 55.2846 53.1306 46.5444Z" fill="#4A80AA"/>
<path d="M55.2459 53.9915V51.6048C55.2459 49.4128 54.2409 47.4004 52.6078 46.0781C47.9689 55.5314 38.8051 62.3616 27.9396 63.7428C29.2511 63.9089 30.5868 63.9975 31.9428 63.9999C33.2457 63.9979 34.5313 63.9224 35.7958 63.7771C43.4247 62.8756 50.2314 59.2904 55.2459 53.9915Z" fill="#407093"/>
<path d="M32.7245 63.521C34.6606 59.6771 39.7022 48.7626 38.2646 41.9449L32.002 39.5075L25.7335 41.945C24.2515 48.9731 29.6547 60.3546 31.4436 63.8563C31.8738 63.753 32.301 63.6411 32.7245 63.521Z" fill="#E4F6FF"/>
<path d="M36.0246 60.4736L33.4854 50.484H30.5145L27.9815 60.4464L31.1138 63.9335C31.9089 63.7514 32.693 63.5402 33.465 63.3014L36.0246 60.4736Z" fill="#E28086"/>
<path d="M31.1627 63.9881C31.4221 63.9949 31.682 63.9995 31.9428 64C32.2447 63.9995 32.5456 63.9943 32.8456 63.9859L34.459 62.2035C33.1891 62.649 31.8827 63.0168 30.5453 63.3009L31.1627 63.9881Z" fill="#DD636E"/>
<path d="M37.3467 41.0229V35.3896H26.6492V41.0229C26.6492 43.9769 31.998 47.2036 31.998 47.2036C31.998 47.2036 37.3467 43.9769 37.3467 41.0229Z" fill="#FFDDCE"/>
<path d="M44.0111 22.5398H41.9662C40.829 22.5398 39.9071 21.6179 39.9071 20.4806V19.3538C39.9071 17.8724 38.4577 16.825 37.0512 17.2899C33.7709 18.3741 30.2289 18.3744 26.9484 17.2906L26.9445 17.2894C25.538 16.8248 24.0889 17.8721 24.0889 19.3534V20.4808C24.0889 21.618 23.167 22.5399 22.0297 22.5399H19.985V25.9071C19.985 26.7675 20.6825 27.4651 21.543 27.4651C21.8145 27.4651 22.0354 27.6778 22.0525 27.9488C22.381 33.1573 26.7069 37.2805 31.9981 37.2805C37.2894 37.2805 41.6152 33.1573 41.9437 27.9488C41.9609 27.6779 42.1817 27.4651 42.4532 27.4651C43.3136 27.4651 44.0112 26.7676 44.0112 25.9071V22.5398H44.0111Z" fill="#FFDDCE"/>
<path d="M41.9662 22.5398C40.829 22.5398 39.9071 21.6179 39.9071 20.4806V19.3538C39.9071 17.8724 38.4577 16.825 37.0512 17.2899C36.6627 17.4183 36.2704 17.5303 35.8754 17.6283V28.7497C35.8206 32.3682 33.8379 35.5175 30.9097 37.2195C31.2674 37.2584 31.6301 37.2802 31.998 37.2802C37.2892 37.2802 41.6151 33.157 41.9436 27.9485C41.9607 27.6776 42.1816 27.4649 42.4531 27.4649C43.3135 27.4649 44.0111 26.7674 44.0111 25.9069V22.5396H41.9662V22.5398Z" fill="#FFCBBE"/>
<path d="M26.6492 39.5075L22.4545 42.9159L26.8535 48.355C27.3886 48.876 28.2308 48.908 28.8041 48.4293L32.1122 45.6659L26.6492 39.5075Z" fill="#F4FBFF"/>
<path d="M37.3487 39.5075L32.1122 45.6659L35.2215 48.3244C35.7911 48.8114 36.6374 48.7869 37.1779 48.2678L41.5454 42.9159L37.3487 39.5075Z" fill="#F4FBFF"/>
<path d="M26.6492 39.5075L20.4922 42.5324C20.0235 42.7626 19.8352 43.3329 20.0746 43.797L21.2808 46.1358C21.5935 46.7418 21.4781 47.4803 20.9956 47.962C20.7472 48.2099 20.4782 48.4784 20.2451 48.7111C19.8278 49.1276 19.678 49.743 19.8617 50.3033C21.3181 54.7429 28.3273 61.5317 30.98 63.988C31.1583 63.9927 31.3371 63.996 31.5162 63.998C29.5926 60.2564 22.776 46.0411 26.6492 39.5075Z" fill="#365E7D"/>
<path d="M43.0023 47.9619C42.5197 47.4801 42.4045 46.7416 42.7171 46.1356L43.9233 43.7969C44.1627 43.3328 43.9745 42.7625 43.5057 42.5323L37.3487 39.5075C41.221 46.0394 34.4091 60.2486 32.4833 63.995C32.6643 63.9919 32.845 63.9874 33.0252 63.9814C35.6833 61.5195 42.6812 54.7389 44.1362 50.3034C44.32 49.7431 44.1701 49.1278 43.7528 48.7113C43.5197 48.4784 43.2507 48.2098 43.0023 47.9619Z" fill="#365E7D"/>
<path d="M32.1122 45.6659L28.8547 48.3864L30.5145 50.484H33.4854L35.1452 48.2626L32.1122 45.6659Z" fill="#DD636E"/>
</svg>
